<svg xmlns="http://www.w3.org/2000/svg" width="145" height="140" viewBox="0 0 145 140" version="1.1">
	<path d="M 69.155 3.476 C 66.673 6.303, 66.003 7.968, 66.015 11.285 C 66.040 18.213, 67.320 18.922, 70.894 13.988 C 73.014 11.061, 73.995 8.557, 73.985 6.100 C 73.959 0.074, 72.729 -0.594, 69.155 3.476 M 82.712 2.778 C 80.020 5.589, 77.315 11.648, 78.310 12.643 C 79.498 13.831, 86.676 10.282, 90.229 6.750 C 95.319 1.689, 95.183 0, 89.687 0 C 86.277 0, 84.817 0.581, 82.712 2.778 M 59.182 11.313 C 57.146 13.413, 56 15.603, 56 17.393 C 56 20.175, 59.369 26, 60.978 26 C 61.847 26, 63.590 9.257, 62.804 8.470 C 62.561 8.228, 60.932 9.507, 59.182 11.313 M 92.592 11.468 C 86.572 19.360, 86.909 24.985, 93.182 21.331 C 97.418 18.865, 99.448 14.844, 98.259 11.277 C 96.977 7.432, 95.636 7.477, 92.592 11.468 M 48.912 14.606 C 48.135 15.542, 47.274 19.344, 46.997 23.056 C 46.538 29.226, 46.643 29.726, 48.224 28.880 C 50.812 27.495, 52.002 24.628, 51.985 19.816 C 51.965 14.192, 50.839 12.284, 48.912 14.606 M 73.881 17.503 C 71.550 18.770, 67.256 25.589, 68.197 26.530 C 68.399 26.732, 70.469 26.414, 72.798 25.823 C 75.771 25.069, 77.919 23.628, 80.015 20.981 C 81.657 18.908, 83 16.939, 83 16.606 C 83 15.448, 76.484 16.089, 73.881 17.503 M 35.090 29.930 C 32.998 38.516, 32.850 40.225, 33.971 42.929 C 35.811 47.373, 36.538 47.449, 38.902 43.441 C 43.634 35.421, 43.747 28.092, 39.229 22.273 C 37.529 20.083, 37.460 20.211, 35.090 29.930 M 82.178 22.086 C 80.556 24.683, 80.701 29.226, 82.481 31.559 C 83.765 33.242, 84.099 33.300, 84.990 32 C 87.573 28.231, 87.399 21.751, 84.687 20.710 C 83.955 20.429, 82.826 21.049, 82.178 22.086 M 107.667 21.667 C 105.844 23.489, 107.141 31.712, 110.049 36.784 C 113.335 42.515, 114.426 42.619, 116.602 37.410 C 118.765 32.233, 118.325 30.308, 113.873 25.478 C 109.709 20.960, 108.881 20.452, 107.667 21.667 M 27 25.300 C 27 28.735, 28.471 31, 30.700 31 C 32.710 31, 32.236 26.630, 29.961 24.189 C 27.272 21.302, 27 21.404, 27 25.300 M 95.418 23.892 C 90.500 26.883, 87 31.741, 87 35.577 C 87 39.554, 88.122 39.832, 92.759 37.005 C 98.161 33.712, 101.415 26.775, 99.196 23.283 C 98.611 22.361, 97.691 22.510, 95.418 23.892 M 61.671 30.250 C 54.408 42.137, 54.260 43.372, 60.383 41.045 C 64.231 39.581, 66.245 35.822, 65.450 31.583 C 64.674 27.447, 63.613 27.073, 61.671 30.250 M 127.465 29.952 C 124.665 31.087, 123.283 32.947, 121.513 37.964 L 119.998 42.256 124.200 41.584 C 126.510 41.215, 128.971 40.439, 129.669 39.860 C 130.801 38.920, 136 30.310, 136 29.374 C 136 28.681, 129.518 29.119, 127.465 29.952 M 48.636 32.636 C 46.698 34.575, 46 36.295, 46 39.136 C 46 43.354, 47.179 43.964, 50.645 41.536 C 52.941 39.928, 54.206 35.504, 53.329 32.149 C 52.599 29.360, 51.833 29.440, 48.636 32.636 M 8.346 32.711 C 8.623 33.695, 9.159 36.075, 9.537 38 C 10.318 41.987, 12.328 44.601, 16.121 46.562 C 19.076 48.091, 20.003 47.617, 19.994 44.583 C 19.975 37.434, 16.800 33.005, 10.670 31.580 C 8.275 31.023, 7.918 31.197, 8.346 32.711 M 97.618 34.898 C 93.599 38.376, 93.335 38.854, 95.164 39.333 C 96.292 39.628, 98.232 39.482, 99.476 39.009 C 101.744 38.147, 106 33.486, 106 31.865 C 106 29.779, 101.760 31.313, 97.618 34.898 M 23.035 35.934 C 21.805 38.234, 21.643 46, 22.826 46 C 24.555 46, 28 41.264, 28 38.886 C 28 36.476, 26.396 34, 24.835 34 C 24.415 34, 23.605 34.870, 23.035 35.934 M 71.667 36.667 C 69.309 39.024, 73.347 46.202, 77.750 47.481 C 79.789 48.073, 80 47.796, 80 44.522 C 80 39.372, 74.318 34.016, 71.667 36.667 M 0 43.393 C 0 45.930, 1.647 47, 5.550 47 C 8.698 47, 7.790 44.460, 3.928 42.463 C 0.205 40.538, 0 40.586, 0 43.393 M 128.592 43.808 L 124.685 45.563 127.592 47.478 C 129.321 48.616, 132.325 49.414, 135 49.446 C 139.088 49.495, 139.527 49.268, 139.795 46.967 C 140.038 44.887, 139.490 44.217, 136.724 43.217 C 132.631 41.737, 133.312 41.688, 128.592 43.808 M 7.250 52.780 C 4.752 53.179, 4.136 55, 6.500 55 C 7.664 55, 8 56.324, 8 60.917 C 8 64.566, 7.549 66.984, 6.823 67.226 C 4.644 67.952, 7.090 70, 10.136 70 C 14.557 70, 19.438 64.900, 18.534 61.225 C 17.055 55.207, 12.657 51.916, 7.250 52.780 M 32.667 53.667 C 32.300 54.033, 32 55.023, 32 55.867 C 32 57.059, 32.267 57.133, 33.200 56.200 C 35.899 53.501, 37 54.891, 37 61 C 37 65.667, 36.667 67, 35.500 67 C 34.675 67, 34 67.450, 34 68 C 34 68.550, 35.575 69, 37.500 69 C 39.425 69, 41 68.550, 41 68 C 41 67.450, 40.550 67, 40 67 C 39.444 67, 39 64.333, 39 61 C 39 55.754, 39.241 55, 40.917 55 C 41.971 55, 43.060 55.563, 43.338 56.250 C 43.615 56.938, 43.878 56.487, 43.921 55.250 C 43.993 53.188, 43.554 53, 38.667 53 C 35.733 53, 33.033 53.300, 32.667 53.667 M 76.714 54.714 C 75.644 55.784, 75 55.972, 75 55.214 C 75 54.404, 73.104 54, 69.300 54 C 64.867 54, 63.867 54.267, 64.800 55.200 C 66.718 57.118, 66.323 66.034, 64.250 67.608 C 62.680 68.800, 62.834 68.940, 65.750 68.968 C 67.537 68.986, 69 68.550, 69 68 C 69 67.450, 68.550 67, 68 67 C 67.450 67, 67 65.875, 67 64.500 C 67 62.667, 67.533 62, 69 62 C 70.100 62, 71 61.550, 71 61 C 71 60.450, 70.100 60, 69 60 C 67.667 60, 67 59.333, 67 58 C 67 56.461, 67.667 56, 69.893 56 C 73.052 56, 74 57.418, 74 62.148 C 74 66.982, 75.622 69, 79.510 69 C 82.306 69, 83.234 68.449, 84.474 66.050 C 85.313 64.427, 86 61.572, 86 59.705 C 86 53.928, 80.471 50.957, 76.714 54.714 M 86.553 53.915 C 86.242 54.418, 86.553 55.018, 87.244 55.248 C 88.085 55.528, 88.500 57.871, 88.500 62.333 C 88.500 67.927, 88.772 69, 90.191 69 C 91.121 69, 92.160 68.550, 92.500 68 C 92.840 67.450, 92.641 67, 92.059 67 C 91.477 67, 91 66.100, 91 65 C 91 61.962, 93.596 62.611, 95 66 C 95.904 68.182, 96.913 69, 98.698 69 L 101.154 69 98.024 65.870 L 94.895 62.741 96.947 60.556 C 99.570 57.764, 99.534 56.488, 96.777 54.557 C 94.366 52.867, 87.468 52.434, 86.553 53.915 M 131 59.418 C 131 62.948, 130.727 66.548, 130.393 67.418 C 129.995 68.456, 130.338 69, 131.393 69 C 132.692 69, 133.009 67.804, 133.049 62.750 L 133.097 56.500 136.500 63 L 139.903 69.500 139.951 61.250 C 139.978 56.712, 139.659 53, 139.243 53 C 138.826 53, 138.614 55.138, 138.770 57.750 L 139.054 62.500 137.402 59.500 C 135.367 55.805, 132.969 53, 131.845 53 C 131.380 53, 131 55.888, 131 59.418 M 21.991 60.737 C 20.621 64.443, 19.350 67.818, 19.167 68.237 C 18.983 68.657, 19.791 69, 20.961 69 C 22.432 69, 22.997 68.460, 22.794 67.250 C 22.572 65.930, 23.298 65.423, 25.750 65.187 C 28.468 64.925, 29 65.211, 29 66.937 C 29 68.165, 29.650 69, 30.607 69 C 31.516 69, 31.997 68.435, 31.714 67.697 C 31.439 66.981, 30.432 63.606, 29.475 60.197 C 27.117 51.793, 25.248 51.928, 21.991 60.737 M 47.339 55.676 C 46.978 56.679, 45.855 59.654, 44.842 62.287 C 42.512 68.342, 42.534 69, 45.067 69 C 46.703 69, 46.998 68.568, 46.478 66.930 C 45.891 65.083, 46.180 64.894, 49.160 65.180 C 51.695 65.423, 52.429 65.922, 52.206 67.250 C 52.006 68.442, 52.564 69, 53.956 69 C 56.035 69, 56.606 67.935, 55.250 66.588 C 54.837 66.179, 53.789 63.291, 52.919 60.172 C 51.283 54.299, 48.608 52.144, 47.339 55.676 M 78.071 56.425 C 76.416 58.186, 75.945 59.736, 76.183 62.636 C 76.460 66.014, 76.846 66.540, 79.250 66.816 C 81.443 67.069, 82.201 66.601, 83 64.501 C 85.745 57.280, 82.406 51.810, 78.071 56.425 M 109.800 55.200 C 111.357 56.757, 111.357 66.243, 109.800 67.800 C 108.867 68.733, 109.224 69, 111.407 69 C 113.688 69, 114.079 68.672, 113.494 67.250 C 111.681 62.848, 111.744 62, 113.883 62 C 115.048 62, 116 61.550, 116 61 C 116 60.450, 115.100 60, 114 60 C 112.667 60, 112 59.333, 112 58 C 112 56.461, 112.667 56, 114.893 56 C 118.052 56, 119 57.418, 119 62.148 C 119 66.017, 120.624 68.983, 122.785 69.063 C 124.177 69.115, 124.116 69.282, 122.465 69.952 C 119.930 70.979, 117.630 73.654, 118.709 74.320 C 119.152 74.594, 121.157 75.126, 123.164 75.503 C 126.163 76.066, 127.211 75.789, 129.052 73.948 L 131.291 71.709 128.579 70.287 C 126.449 69.172, 126.110 68.573, 126.998 67.502 C 127.621 66.752, 128.389 63.632, 128.705 60.569 C 129.256 55.233, 129.182 55, 126.940 55 C 125.120 55, 124.867 55.267, 125.800 56.200 C 127.178 57.578, 127.383 63.848, 126.115 65.848 C 125.645 66.590, 124.414 67.036, 123.380 66.839 C 121.874 66.552, 121.440 65.439, 121.198 61.241 C 120.979 57.454, 121.257 55.996, 122.198 55.985 C 123.135 55.974, 123.080 55.698, 122 55 C 121.175 54.467, 117.823 54.024, 114.550 54.015 C 109.922 54.003, 108.867 54.267, 109.800 55.200 M 10 61.500 C 10 68.288, 10.861 69.354, 14.240 66.750 C 17.019 64.608, 16.903 59.903, 14 57 C 10.750 53.750, 10 54.593, 10 61.500 M 91 58 C 91 61.285, 92.482 61.830, 95.471 59.645 C 97.962 57.823, 96.783 55, 93.531 55 C 91.385 55, 91 55.457, 91 58 M 48.250 58.953 C 46.868 61.187, 46.581 64.039, 47.750 63.930 C 50.976 63.627, 51.794 62.442, 50.659 59.717 C 49.535 57.017, 49.462 56.994, 48.250 58.953 M 24.161 60.547 C 22.706 63.740, 22.713 64.004, 24.250 63.985 C 26.663 63.955, 27.923 62.421, 27.346 60.214 C 26.586 57.311, 25.588 57.415, 24.161 60.547 M 21.901 71.776 L 19.302 72.104 21.201 75.942 C 23.703 80.998, 25.716 82.685, 30.250 83.527 C 34.707 84.354, 34.930 83.552, 31.950 77.396 C 29.780 72.915, 26.670 71.175, 21.901 71.776 M 65 73.851 C 65 76.914, 67.044 81.803, 68.570 82.388 C 70.909 83.286, 70.729 78.042, 68.292 74.323 C 66.460 71.528, 65 71.318, 65 73.851 M 9.391 75.789 C 11.407 79.687, 14.670 82, 18.153 82 C 20.720 82, 20.813 81.835, 19.948 78.817 C 18.717 74.526, 18.174 74.123, 12.606 73.360 L 7.793 72.700 9.391 75.789 M 134.374 73.985 C 132.364 74.797, 128 79.966, 128 81.534 C 128 82.676, 136.830 81.386, 138.499 80 C 139.325 79.316, 140 77.460, 140 75.878 C 140 72.808, 138.521 72.311, 134.374 73.985 M 75.423 81.750 C 73.304 86.013, 71.452 89.678, 71.306 89.896 C 71.160 90.114, 69.083 88.487, 66.689 86.281 C 62.947 82.831, 53.142 78, 49.883 78 C 49.310 78, 51.542 80.993, 54.844 84.651 C 67.149 98.285, 68.862 105.189, 64.603 123.993 C 60.687 141.286, 60.056 140, 72.456 140 L 82.911 140 81.404 135.750 C 77.155 123.770, 78.064 109.680, 83.714 99.950 C 83.890 99.647, 82.226 98.602, 80.017 97.627 C 75.185 95.496, 75.104 94.744, 78.405 82.743 C 79.728 77.934, 80.465 74, 80.042 74 C 79.620 74, 77.541 77.487, 75.423 81.750 M 89.910 77.595 C 87.632 78.541, 85.530 80.491, 84.160 82.929 C 81.452 87.748, 81.276 90.433, 83.750 89.193 C 84.713 88.710, 88.695 87.765, 92.601 87.093 C 99.122 85.971, 100.099 85.469, 104.563 80.936 L 109.425 76 101.462 76.052 C 96.791 76.082, 92.016 76.720, 89.910 77.595 M 112.314 80.950 C 109.521 82.653, 107 85.729, 107 87.434 C 107 87.745, 108.732 88, 110.850 88 C 113.543 88, 115.948 87.096, 118.850 84.994 C 121.132 83.340, 123 81.597, 123 81.119 C 123 80.400, 118.416 78.990, 116.125 79.004 C 115.781 79.006, 114.066 79.882, 112.314 80.950 M 40.750 82.715 C 38.312 83.317, 38.563 84.511, 41.635 86.927 C 44.466 89.154, 49.451 89.697, 50.562 87.899 C 52.112 85.392, 45.040 81.655, 40.750 82.715 M 28.011 88.529 C 30.039 93.863, 32.438 96.980, 35.712 98.534 C 38.727 99.964, 39.532 99.954, 45.006 98.418 C 48.303 97.493, 51 96.398, 51 95.983 C 51 94.194, 44.942 91.568, 28.728 86.328 C 27.166 85.823, 27.081 86.083, 28.011 88.529 M 128.500 87.929 C 127.400 88.370, 123.425 89.056, 119.667 89.454 C 114.178 90.035, 112.210 90.734, 109.667 93.006 C 107.926 94.562, 106.848 96.181, 107.272 96.605 C 108.674 98.007, 119.894 98.287, 123.007 96.997 C 127.391 95.181, 134.344 86.802, 131.250 87.063 C 130.838 87.098, 129.600 87.488, 128.500 87.929 M 88.471 96.201 L 85.673 98.402 88.569 99.177 C 92.114 100.125, 98.001 98.649, 101.155 96.020 L 103.500 94.067 97.385 94.033 C 92.564 94.007, 90.677 94.466, 88.471 96.201 M 51.594 101.266 C 46.285 104.302, 44.201 107.510, 43.390 113.891 L 42.705 119.281 47.977 116.391 C 50.876 114.801, 54.091 112.150, 55.120 110.500 C 56.941 107.582, 57.787 98.983, 56.250 99.016 C 55.837 99.025, 53.742 100.038, 51.594 101.266 M 27.695 101.700 C 25.404 102.294, 25.918 103.850, 29.219 106.314 C 32.358 108.658, 36.612 108.817, 38.757 106.671 C 40.196 105.233, 40.121 104.914, 37.918 103.080 C 35.634 101.178, 31.738 100.652, 27.695 101.700 M 97.695 101.700 C 95.404 102.294, 95.918 103.850, 99.219 106.314 C 102.358 108.658, 106.612 108.817, 108.757 106.671 C 110.196 105.233, 110.121 104.914, 107.918 103.080 C 105.634 101.178, 101.738 100.652, 97.695 101.700 M 60.291 108.250 C 57.710 111.073, 55.528 115.381, 54.165 120.345 C 53.109 124.188, 53.110 124.189, 55.804 123.559 C 57.287 123.212, 59.737 121.588, 61.250 119.949 C 63.553 117.452, 64 116.078, 64 111.484 C 64 105.448, 63.362 104.891, 60.291 108.250 M 85.250 107.706 C 82.046 108.323, 82.460 110.319, 86.535 113.896 C 90.664 117.522, 93.572 117.769, 99.075 114.962 C 103.614 112.646, 103.455 111.783, 97.972 108.986 C 94.298 107.112, 90.381 106.717, 85.250 107.706 M 82 119.941 C 82 123.203, 84.143 125, 88.035 125 C 92.395 125, 92.938 124.159, 90.184 121.667 C 87.828 119.534, 82 118.305, 82 119.941" stroke="none" fill="black" fill-rule="evenodd"/>
</svg>